<svg width="34" height="34" viewBox="0 0 34 34" fill="none" xmlns="http://www.w3.org/2000/svg">
<path d="M16.9999 2.83333C13.2883 2.83333 10.2708 5.85083 10.2708 9.5625C10.2708 13.2033 13.1183 16.15 16.8299 16.2775C16.9433 16.2633 17.0566 16.2633 17.1416 16.2775H17.2408C18.9824 16.2194 20.6331 15.4863 21.8439 14.2331C23.0548 12.98 23.7308 11.3051 23.7291 9.5625C23.7291 5.85083 20.7116 2.83333 16.9999 2.83333ZM24.1966 20.0444C20.2441 17.4094 13.7983 17.4094 9.81744 20.0444C8.01828 21.2486 7.02661 22.8777 7.02661 24.6202C7.02661 26.3627 8.01828 27.9777 9.80328 29.1677C11.7866 30.4994 14.3933 31.1652 16.9999 31.1652C19.6066 31.1652 22.2133 30.4994 24.1966 29.1677C25.9816 27.9636 26.9733 26.3486 26.9733 24.5919C26.9591 22.8494 25.9816 21.2344 24.1966 20.0444Z" fill="white"/>
</svg>
