<svg width="34" height="34" viewBox="0 0 34 34" fill="none" xmlns="http://www.w3.org/2000/svg">
<path d="M17.9577 28.2752C18.3473 28.3659 18.3827 28.8759 18.003 29.002L15.7647 29.7387C10.1405 31.552 7.17969 30.0362 5.35219 24.412L3.53885 18.8162C1.72552 13.192 3.22719 10.217 8.85135 8.40366L9.59369 8.15716C10.1646 7.96874 10.7199 8.54107 10.557 9.12049C10.4777 9.40666 10.4012 9.70699 10.3247 10.0187L8.93635 15.9545C7.37802 22.627 9.65885 26.3103 16.3314 27.897L17.9577 28.2752Z" fill="white"/>
<path d="M24.3242 4.5461L21.9584 3.9936C17.2267 2.87443 14.4076 3.79526 12.7501 7.2236C12.3251 8.08776 11.9851 9.1361 11.7017 10.3403L10.3134 16.2761C8.92505 22.1978 10.7526 25.1161 16.6601 26.5186L19.0401 27.0853C19.8617 27.2836 20.6267 27.4111 21.3351 27.4678C25.7551 27.8928 28.1067 25.8244 29.2967 20.7103L30.6851 14.7886C32.0734 8.86693 30.2601 5.93443 24.3242 4.5461ZM21.6609 18.8828C21.5334 19.3644 21.1084 19.6761 20.6267 19.6761C20.5417 19.6761 20.4567 19.6619 20.3576 19.6478L16.2351 18.5994C15.9794 18.5151 15.7653 18.337 15.636 18.1009C15.5067 17.8648 15.4717 17.5885 15.5383 17.3277C15.6048 17.0669 15.7679 16.841 15.9945 16.6958C16.2212 16.5506 16.4945 16.4968 16.7592 16.5453L20.8817 17.5936C21.4626 17.7353 21.8026 18.3161 21.6609 18.8828ZM25.8117 14.0944C25.6842 14.5761 25.2592 14.8878 24.7776 14.8878C24.6926 14.8878 24.6076 14.8736 24.5084 14.8594L17.6376 13.1169C17.3819 13.0326 17.1678 12.8545 17.0385 12.6184C16.9092 12.3823 16.8742 12.106 16.9408 11.8452C17.0073 11.5844 17.1704 11.3585 17.397 11.2133C17.6237 11.0681 17.897 11.0143 18.1617 11.0628L25.0326 12.8053C25.6134 12.9328 25.9534 13.5136 25.8117 14.0944Z" fill="white"/>
</svg>
