<svg width="34" height="34" viewBox="0 0 34 34" fill="none" xmlns="http://www.w3.org/2000/svg">
<path d="M22.865 4.19333L10.0725 8.44333C1.47338 11.3192 1.47338 16.0083 10.0725 18.87L13.8692 20.1308L15.13 23.9275C17.9917 32.5267 22.695 32.5267 25.5567 23.9275L29.8209 11.1492C31.7192 5.41167 28.6025 2.28083 22.865 4.19333ZM23.3184 11.815L17.935 17.2267C17.7225 17.4392 17.4534 17.5383 17.1842 17.5383C16.915 17.5383 16.6459 17.4392 16.4334 17.2267C16.2358 17.0267 16.125 16.7569 16.125 16.4758C16.125 16.1947 16.2358 15.9249 16.4334 15.725L21.8167 10.3133C22.2275 9.9025 22.9075 9.9025 23.3184 10.3133C23.7292 10.7242 23.7292 11.4042 23.3184 11.815Z" fill="white"/>
</svg>
