<svg width="34" height="34" viewBox="0 0 34 34" fill="none" xmlns="http://www.w3.org/2000/svg">
<path d="M29.0417 14.4359H24.9475C21.59 14.4359 18.8558 11.7017 18.8558 8.34421V4.25004C18.8558 3.47087 18.2183 2.83337 17.4392 2.83337H11.4325C7.06916 2.83337 3.54166 5.66671 3.54166 10.7242V23.2759C3.54166 28.3334 7.06916 31.1667 11.4325 31.1667H22.5675C26.9308 31.1667 30.4583 28.3334 30.4583 23.2759V15.8525C30.4583 15.0734 29.8208 14.4359 29.0417 14.4359ZM17.3967 22.355L14.5633 25.1884C14.4642 25.2875 14.3367 25.3725 14.2092 25.415C14.0847 25.4722 13.9494 25.5018 13.8125 25.5018C13.6756 25.5018 13.5403 25.4722 13.4158 25.415C13.2986 25.366 13.1926 25.2938 13.1042 25.2025C13.09 25.1884 13.0758 25.1884 13.0758 25.1742L10.2425 22.3409C10.0449 22.1409 9.93409 21.8711 9.93409 21.59C9.93409 21.3089 10.0449 21.0392 10.2425 20.8392C10.6533 20.4284 11.3333 20.4284 11.7442 20.8392L12.75 21.8734V15.9375C12.75 15.3567 13.2317 14.875 13.8125 14.875C14.3933 14.875 14.875 15.3567 14.875 15.9375V21.8734L15.895 20.8534C16.3058 20.4425 16.9858 20.4425 17.3967 20.8534C17.8075 21.2642 17.8075 21.9442 17.3967 22.355V22.355Z" fill="white"/>
<path d="M24.6925 12.4808C26.0383 12.4949 27.9083 12.4949 29.5092 12.4949C30.3167 12.4949 30.7417 11.5458 30.175 10.9791C28.135 8.92495 24.48 5.22745 22.3833 3.13078C21.8025 2.54995 20.7967 2.94662 20.7967 3.75412V8.69828C20.7967 10.7666 22.5533 12.4808 24.6925 12.4808V12.4808Z" fill="white"/>
</svg>
