<svg width="34" height="34" viewBox="0 0 34 34" fill="none" xmlns="http://www.w3.org/2000/svg">
<path d="M17.9916 23.9133H18.9833C20.6125 23.9133 21.9441 22.5817 21.9441 20.9525V19.9608H17.9916V23.9133ZM12.0558 20.9525C12.0558 22.5817 13.3875 23.9133 15.0166 23.9133H16.0083V19.9608H12.0558V20.9525ZM12.0558 17V17.9917H16.0083V14.0392H15.0166C13.3875 14.0392 12.0558 15.3708 12.0558 17Z" fill="white"/>
<path d="M28.3759 9.6645L20.23 3.95533C18.0059 2.397 14.6059 2.482 12.4667 4.1395L5.36921 9.67867C3.93837 10.7837 2.83337 13.0503 2.83337 14.8353V24.6103C2.83337 28.2228 5.76587 31.1695 9.36421 31.1695H24.6217C26.3551 31.1657 28.0162 30.4745 29.2406 29.2475C30.4649 28.0205 31.1525 26.3579 31.1525 24.6245V15.0195C31.1667 13.107 29.9342 10.7553 28.3759 9.6645ZM23.9134 20.9553C23.9096 22.2655 23.3875 23.5209 22.4611 24.4473C21.5347 25.3737 20.2793 25.8958 18.9692 25.8995H15.0167C12.2967 25.8995 10.0725 23.6895 10.0725 20.9553V17.0028C10.0763 15.6927 10.5984 14.4373 11.5248 13.5109C12.4512 12.5845 13.7066 12.0624 15.0167 12.0587H18.9692C21.6892 12.0587 23.9134 14.2687 23.9134 17.0028V20.9553Z" fill="white"/>
<path d="M18.9834 14.0392H17.9917V17.9917H21.9442V17C21.9442 15.3708 20.6125 14.0392 18.9834 14.0392Z" fill="white"/>
</svg>
