<svg width="32" height="32" viewBox="0 0 32 32" fill="none" xmlns="http://www.w3.org/2000/svg">
<path d="M21.3333 2.6665H10.6667C6 2.6665 4 5.33317 4 9.33317V22.6665C4 26.6665 6 29.3332 10.6667 29.3332H21.3333C26 29.3332 28 26.6665 28 22.6665V9.33317C28 5.33317 26 2.6665 21.3333 2.6665ZM10.6667 16.3332H16C16.5467 16.3332 17 16.7865 17 17.3332C17 17.8798 16.5467 18.3332 16 18.3332H10.6667C10.12 18.3332 9.66667 17.8798 9.66667 17.3332C9.66667 16.7865 10.12 16.3332 10.6667 16.3332ZM21.3333 23.6665H10.6667C10.12 23.6665 9.66667 23.2132 9.66667 22.6665C9.66667 22.1198 10.12 21.6665 10.6667 21.6665H21.3333C21.88 21.6665 22.3333 22.1198 22.3333 22.6665C22.3333 23.2132 21.88 23.6665 21.3333 23.6665ZM24.6667 12.3332H22C19.9733 12.3332 18.3333 10.6932 18.3333 8.6665V5.99984C18.3333 5.45317 18.7867 4.99984 19.3333 4.99984C19.88 4.99984 20.3333 5.45317 20.3333 5.99984V8.6665C20.3333 9.5865 21.08 10.3332 22 10.3332H24.6667C25.2133 10.3332 25.6667 10.7865 25.6667 11.3332C25.6667 11.8798 25.2133 12.3332 24.6667 12.3332Z" fill="#FFB400"/>
</svg>
