<svg width="32" height="32" viewBox="0 0 32 32" fill="none" xmlns="http://www.w3.org/2000/svg">
<path d="M10.1733 4.76022C10.4107 4.62955 10.6667 4.82955 10.6667 5.10289V23.1776C10.6667 23.4749 10.4627 23.7269 10.2 23.8656C10.1911 23.8699 10.1822 23.8744 10.1733 23.8789L7.04 25.6656C4.85333 26.9189 3.05333 25.8789 3.05333 23.3456V10.3736C3.05333 9.53356 3.65333 8.49355 4.4 8.06689L10.1733 4.76022ZM19.6293 8.13755C19.7404 8.1926 19.834 8.27754 19.8994 8.38283C19.9649 8.48811 19.9997 8.60957 20 8.73355V26.2709C19.9999 26.3836 19.9712 26.4945 19.9166 26.5932C19.862 26.6918 19.7832 26.775 19.6877 26.8349C19.5922 26.8949 19.4831 26.9296 19.3705 26.9359C19.2579 26.9422 19.1456 26.9198 19.044 26.8709L13.3773 24.1416C13.2644 24.0871 13.1691 24.002 13.1023 23.8959C13.0356 23.7897 13.0001 23.6669 13 23.5416V5.92955C12.9998 5.81601 13.0286 5.70429 13.0836 5.60498C13.1387 5.50567 13.2182 5.42208 13.3146 5.36211C13.411 5.30215 13.5212 5.26781 13.6346 5.26234C13.748 5.25688 13.8609 5.28047 13.9627 5.33089L19.6293 8.13755ZM29.3333 8.65355V21.6269C29.3333 22.4669 28.7333 23.5069 27.9867 23.9336L23.332 26.6016C23.2306 26.6598 23.1156 26.6903 22.9987 26.6901C22.8818 26.6899 22.7669 26.6589 22.6658 26.6003C22.5646 26.5416 22.4806 26.4574 22.4222 26.3561C22.3639 26.2547 22.3332 26.1398 22.3333 26.0229V8.44022C22.3334 8.32271 22.3645 8.2073 22.4235 8.10568C22.4825 8.00406 22.5673 7.91984 22.6693 7.86155L25.3467 6.33355C27.5333 5.08022 29.3333 6.12022 29.3333 8.65355Z" fill="#FFB400"/>
</svg>
