<svg width="34" height="34" viewBox="0 0 34 34" fill="none" xmlns="http://www.w3.org/2000/svg">
<path d="M30.4994 22.5675C30.2728 22.185 29.6353 21.59 28.0486 21.8733C27.1703 22.0292 26.2778 22.1 25.3853 22.0575C23.7935 21.9853 22.2323 21.5946 20.7942 20.9083C19.3561 20.2221 18.0703 19.2544 17.0128 18.0625C15.1711 16.0083 14.0378 13.3308 14.0236 10.4408C14.0236 8.82583 14.3353 7.26749 14.9728 5.79416C15.5961 4.36333 15.1569 3.61249 14.8453 3.30083C14.5194 2.97499 13.7544 2.52166 12.2528 3.14499C6.45861 5.58166 2.87444 11.39 3.29944 17.6092C3.72444 23.46 7.83278 28.4608 13.2728 30.345C14.5916 30.8051 15.9713 31.0677 17.3669 31.1242C17.5936 31.1383 17.8203 31.1525 18.0469 31.1525C22.7928 31.1525 27.2411 28.9142 30.0461 25.1033C30.9953 23.7858 30.7403 22.95 30.4994 22.5675Z" fill="white"/>
</svg>
