<svg width="34" height="34" viewBox="0 0 34 34" fill="none" xmlns="http://www.w3.org/2000/svg">
<path d="M17 2.83334C9.19415 2.83334 2.83331 9.19418 2.83331 17C2.83331 24.8058 9.19415 31.1667 17 31.1667C24.8058 31.1667 31.1666 24.8058 31.1666 17C31.1666 9.19418 24.8058 2.83334 17 2.83334ZM20.9525 17.7508L15.9516 22.7517C15.7391 22.9642 15.47 23.0633 15.2008 23.0633C14.9316 23.0633 14.6625 22.9642 14.45 22.7517C14.2524 22.5517 14.1416 22.282 14.1416 22.0008C14.1416 21.7197 14.2524 21.45 14.45 21.25L18.7 17L14.45 12.75C14.2524 12.5501 14.1416 12.2803 14.1416 11.9992C14.1416 11.7181 14.2524 11.4483 14.45 11.2483C14.8608 10.8375 15.5408 10.8375 15.9516 11.2483L20.9525 16.2492C21.3775 16.66 21.3775 17.34 20.9525 17.7508Z" fill="white"/>
</svg>
