<svg width="32" height="32" viewBox="0 0 32 32" fill="none" xmlns="http://www.w3.org/2000/svg">
<path d="M14.7333 19.9332L12.2667 22.3998C11.7467 22.9198 10.92 22.9198 10.3867 22.4132C10.24 22.2665 10.0933 22.1332 9.94666 21.9865C8.59835 20.6292 7.3548 19.1717 6.22666 17.6265C5.13333 16.1065 4.25333 14.5865 3.61333 13.0798C2.98666 11.5598 2.66666 10.1065 2.66666 8.71984C2.66666 7.81317 2.82666 6.9465 3.14666 6.1465C3.46666 5.33317 3.97333 4.5865 4.68 3.91984C5.53333 3.07984 6.46666 2.6665 7.45333 2.6665C7.82666 2.6665 8.2 2.7465 8.53333 2.9065C8.88 3.0665 9.18666 3.3065 9.42666 3.65317L12.52 8.01317C12.76 8.3465 12.9333 8.65317 13.0533 8.9465C13.1733 9.2265 13.24 9.5065 13.24 9.75984C13.24 10.0798 13.1467 10.3998 12.96 10.7065C12.7867 11.0132 12.5333 11.3332 12.2133 11.6532L11.2 12.7065C11.0533 12.8532 10.9867 13.0265 10.9867 13.2398C10.9867 13.3465 11 13.4398 11.0267 13.5465C11.0667 13.6532 11.1067 13.7332 11.1333 13.8132C11.3733 14.2532 11.7867 14.8265 12.3733 15.5198C12.9733 16.2132 13.6133 16.9198 14.3067 17.6265C14.44 17.7598 14.5867 17.8932 14.72 18.0265C15.2533 18.5465 15.2667 19.3998 14.7333 19.9332ZM29.2933 24.4398C29.2916 24.943 29.1777 25.4395 28.96 25.8932C28.7333 26.3732 28.44 26.8265 28.0533 27.2532C27.4 27.9732 26.68 28.4932 25.8667 28.8265C25.8533 28.8265 25.84 28.8398 25.8267 28.8398C25.04 29.1598 24.1867 29.3332 23.2667 29.3332C21.9067 29.3332 20.4533 29.0132 18.92 28.3598C17.3867 27.7065 15.8533 26.8265 14.3333 25.7198C13.8133 25.3332 13.2933 24.9465 12.8 24.5332L17.16 20.1732C17.5333 20.4532 17.8667 20.6665 18.1467 20.8132C18.2133 20.8398 18.2933 20.8798 18.3867 20.9198C18.4933 20.9598 18.6 20.9732 18.72 20.9732C18.9467 20.9732 19.12 20.8932 19.2667 20.7465L20.28 19.7465C20.6133 19.4132 20.9333 19.1598 21.24 18.9998C21.5467 18.8132 21.8533 18.7198 22.1867 18.7198C22.44 18.7198 22.7067 18.7732 23 18.8932C23.2933 19.0132 23.6 19.1865 23.9333 19.4132L28.3467 22.5465C28.6933 22.7865 28.9333 23.0665 29.08 23.3998C29.2133 23.7332 29.2933 24.0665 29.2933 24.4398Z" fill="#FFB400"/>
</svg>
