<svg width="34" height="34" viewBox="0 0 34 34" fill="none" xmlns="http://www.w3.org/2000/svg">
<path d="M24.8767 2.83333H9.08087C5.63837 2.83333 2.83337 5.63833 2.83337 9.08083V18.5725C2.83337 20.2294 3.49159 21.8185 4.66322 22.9901C5.83486 24.1618 7.42393 24.82 9.08087 24.82H14.5209C15.3 24.82 15.9375 25.4575 15.9375 26.2367V27.6108C15.9375 28.39 15.3 29.0275 14.5209 29.0275H11.0925C10.8089 29.0275 10.5368 29.1402 10.3362 29.3408C10.1356 29.5414 10.023 29.8134 10.023 30.0971C10.023 30.3808 10.1356 30.6528 10.3362 30.8534C10.5368 31.054 10.8089 31.1667 11.0925 31.1667H22.9217C23.5025 31.1667 23.9842 30.685 23.9842 30.1042C23.9842 29.5233 23.5025 29.0417 22.9217 29.0417H19.4934C18.7142 29.0417 18.0767 28.4042 18.0767 27.625V26.2508C18.0767 25.4717 18.7142 24.8342 19.4934 24.8342H24.8909C25.7113 24.8342 26.5237 24.6726 27.2817 24.3586C28.0397 24.0446 28.7284 23.5844 29.3085 23.0043C29.8887 22.4242 30.3488 21.7355 30.6628 20.9775C30.9768 20.2195 31.1384 19.4071 31.1384 18.5867V9.095C31.1242 5.63833 28.3192 2.83333 24.8767 2.83333Z" fill="white"/>
</svg>
