<svg width="34" height="34" viewBox="0 0 34 34" fill="none" xmlns="http://www.w3.org/2000/svg">
<path d="M28.2766 12.6905C27.3275 11.6422 25.8966 11.033 23.9133 10.8205V9.74384C23.9133 7.803 23.0916 5.933 21.6466 4.62967C20.9336 3.97595 20.0905 3.48026 19.1725 3.17509C18.2546 2.86992 17.2825 2.76214 16.32 2.85884C12.9341 3.18467 10.0866 6.45717 10.0866 9.99884V10.8205C8.1033 11.033 6.67247 11.6422 5.7233 12.6905C4.34913 14.2205 4.39163 16.2605 4.54747 17.6772L5.53913 25.568C5.83663 28.3305 6.9558 31.1638 13.0475 31.1638H20.9525C27.0441 31.1638 28.1633 28.3305 28.4608 25.5822L29.4525 17.663C29.6083 16.2605 29.6508 14.2205 28.2766 12.6905ZM16.5183 4.828C17.2049 4.75904 17.8982 4.83488 18.5537 5.05063C19.2091 5.26638 19.812 5.61724 20.3233 6.08053C20.8347 6.54382 21.2431 7.10924 21.5223 7.74025C21.8015 8.37126 21.9452 9.05382 21.9441 9.74384V10.7355H12.0558V9.99884C12.0558 7.47717 14.1383 5.05467 16.5183 4.828ZM17 26.3188C14.0391 26.3188 11.6308 23.9105 11.6308 20.9497C11.6308 17.9888 14.0391 15.5805 17 15.5805C19.9608 15.5805 22.3691 17.9888 22.3691 20.9497C22.3691 23.9105 19.9608 26.3188 17 26.3188Z" fill="white"/>
<path d="M16.1925 23.5733C15.9233 23.5733 15.6541 23.4742 15.4416 23.2617L14.0391 21.8592C13.8415 21.6592 13.7307 21.3894 13.7307 21.1083C13.7307 20.8272 13.8415 20.5574 14.0391 20.3575C14.45 19.9467 15.13 19.9467 15.5408 20.3575L16.2208 21.0375L18.4875 18.9408C18.9125 18.5442 19.5925 18.5725 19.9891 18.9975C20.3858 19.4225 20.3575 20.1025 19.9325 20.4992L16.915 23.29C16.7025 23.4742 16.4475 23.5733 16.1925 23.5733Z" fill="white"/>
</svg>
