<svg width="34" height="34" viewBox="0 0 34 34" fill="none" xmlns="http://www.w3.org/2000/svg">
<path d="M17 26.9167C18.3022 26.9167 19.5918 26.6602 20.7949 26.1618C21.9981 25.6634 23.0913 24.933 24.0121 24.0121C24.9329 23.0913 25.6634 21.9981 26.1618 20.7949C26.6601 19.5918 26.9166 18.3023 26.9166 17C26.9166 15.6977 26.6601 14.4082 26.1618 13.205C25.6634 12.0019 24.9329 10.9087 24.0121 9.98785C23.0913 9.067 21.9981 8.33654 20.7949 7.83818C19.5918 7.33983 18.3022 7.08332 17 7.08332C14.3699 7.08332 11.8476 8.12811 9.98782 9.98785C8.12808 11.8476 7.08329 14.3699 7.08329 17C7.08329 19.6301 8.12808 22.1524 9.98782 24.0121C11.8476 25.8719 14.3699 26.9167 17 26.9167ZM17 32.5267C16.2208 32.5267 15.5833 31.9458 15.5833 31.1667V31.0533C15.5833 30.2742 16.2208 29.6367 17 29.6367C17.7791 29.6367 18.4166 30.2742 18.4166 31.0533C18.4166 31.8325 17.7791 32.5267 17 32.5267ZM27.115 28.5317C26.7466 28.5317 26.3925 28.39 26.1091 28.1208L25.925 27.9367C25.7938 27.8055 25.6898 27.6498 25.6188 27.4784C25.5478 27.3071 25.5113 27.1234 25.5113 26.9379C25.5113 26.7524 25.5478 26.5688 25.6188 26.3974C25.6898 26.226 25.7938 26.0703 25.925 25.9392C26.0561 25.808 26.2118 25.704 26.3832 25.633C26.5546 25.562 26.7382 25.5255 26.9237 25.5255C27.1092 25.5255 27.2929 25.562 27.4642 25.633C27.6356 25.704 27.7913 25.808 27.9225 25.9392L28.1066 26.1233C28.3035 26.3203 28.4376 26.5711 28.4922 26.8442C28.5467 27.1173 28.5193 27.4004 28.4132 27.6579C28.3072 27.9154 28.1274 28.1358 27.8963 28.2913C27.6653 28.4467 27.3934 28.5304 27.115 28.5317ZM6.88496 28.5317C6.51663 28.5317 6.16246 28.39 5.87913 28.1208C5.7478 27.9898 5.6436 27.8341 5.57251 27.6627C5.50142 27.4913 5.46483 27.3076 5.46483 27.1221C5.46483 26.9365 5.50142 26.7528 5.57251 26.5814C5.6436 26.4101 5.7478 26.2544 5.87913 26.1233L6.06329 25.9392C6.19445 25.808 6.35016 25.704 6.52152 25.633C6.69289 25.562 6.87656 25.5255 7.06204 25.5255C7.24753 25.5255 7.4312 25.562 7.60256 25.633C7.77393 25.704 7.92964 25.808 8.06079 25.9392C8.19195 26.0703 8.29599 26.226 8.36697 26.3974C8.43795 26.5688 8.47449 26.7524 8.47449 26.9379C8.47449 27.1234 8.43795 27.3071 8.36697 27.4784C8.29599 27.6498 8.19195 27.8055 8.06079 27.9367L7.87663 28.1208C7.60746 28.39 7.23913 28.5317 6.88496 28.5317ZM31.1666 18.4167H31.0533C30.2741 18.4167 29.6366 17.7792 29.6366 17C29.6366 16.2208 30.2741 15.5833 31.0533 15.5833C31.8325 15.5833 32.5266 16.2208 32.5266 17C32.5266 17.7792 31.9458 18.4167 31.1666 18.4167ZM2.94663 18.4167H2.83329C2.05413 18.4167 1.41663 17.7792 1.41663 17C1.41663 16.2208 2.05413 15.5833 2.83329 15.5833C3.61246 15.5833 4.30663 16.2208 4.30663 17C4.30663 17.7792 3.72579 18.4167 2.94663 18.4167ZM26.9308 8.48582C26.5625 8.48582 26.2083 8.34416 25.925 8.07499C25.7936 7.94393 25.6894 7.78825 25.6183 7.61687C25.5473 7.4455 25.5107 7.26178 25.5107 7.07624C25.5107 6.8907 25.5473 6.70698 25.6183 6.53561C25.6894 6.36423 25.7936 6.20855 25.925 6.07749L26.1091 5.89332C26.2403 5.76217 26.396 5.65813 26.5674 5.58714C26.7387 5.51616 26.9224 5.47963 27.1079 5.47963C27.2934 5.47963 27.477 5.51616 27.6484 5.58714C27.8198 5.65813 27.9755 5.76217 28.1066 5.89332C28.2378 6.02448 28.3418 6.18019 28.4128 6.35155C28.4838 6.52292 28.5203 6.70659 28.5203 6.89207C28.5203 7.07756 28.4838 7.26123 28.4128 7.43259C28.3418 7.60396 28.2378 7.75967 28.1066 7.89082L27.9225 8.07499C27.6533 8.34416 27.2991 8.48582 26.9308 8.48582ZM7.06913 8.48582C6.70079 8.48582 6.34663 8.34416 6.06329 8.07499L5.87913 7.87666C5.74797 7.7455 5.64393 7.58979 5.57295 7.41843C5.50196 7.24706 5.46543 7.06339 5.46543 6.87791C5.46543 6.69242 5.50196 6.50875 5.57295 6.33739C5.64393 6.16602 5.74797 6.01031 5.87913 5.87916C6.01028 5.748 6.16599 5.64396 6.33736 5.57298C6.50872 5.502 6.69239 5.46546 6.87788 5.46546C7.06336 5.46546 7.24703 5.502 7.4184 5.57298C7.58976 5.64396 7.74547 5.748 7.87663 5.87916L8.06079 6.06332C8.61329 6.61582 8.61329 7.50832 8.06079 8.06082C7.79163 8.34416 7.42329 8.48582 7.06913 8.48582ZM17 4.30666C16.2208 4.30666 15.5833 3.72582 15.5833 2.94666V2.83332C15.5833 2.05416 16.2208 1.41666 17 1.41666C17.7791 1.41666 18.4166 2.05416 18.4166 2.83332C18.4166 3.61249 17.7791 4.30666 17 4.30666Z" fill="white"/>
</svg>
