<svg width="24" height="24" viewBox="0 0 24 24" fill="none" xmlns="http://www.w3.org/2000/svg">
<g clip-path="url(#clip0_46_3)">
<path d="M21 6.60774C20.301 6.91808 19.5497 7.12708 18.7612 7.22129C19.5663 6.73916 20.1846 5.9752 20.4751 5.06479C19.7222 5.51129 18.8878 5.83587 17.9996 6.01083C17.2895 5.2532 16.2753 4.77979 15.1543 4.77979C12.6376 4.77979 10.7883 7.12787 11.3567 9.56541C8.118 9.40312 5.24583 7.85145 3.32288 5.49308C2.30163 7.24504 2.79325 9.53691 4.52858 10.6975C3.8905 10.6769 3.28883 10.502 2.76396 10.2098C2.72121 12.0156 4.01558 13.705 5.89025 14.0811C5.34163 14.2299 4.74075 14.2647 4.12958 14.1476C4.62517 15.6961 6.06442 16.8226 7.77125 16.8543C6.1325 18.1392 4.06783 18.7131 2 18.4693C3.72504 19.5752 5.77467 20.2205 7.9755 20.2205C15.2129 20.2205 19.3019 14.108 19.0549 8.6257C19.8165 8.07549 20.4775 7.38912 21 6.60774Z" fill="white"/>
</g>
<defs>
<clipPath id="clip0_46_3">
<rect width="19" height="19" fill="white" transform="translate(2 3)"/>
</clipPath>
</defs>
</svg>
